<?xml version="1.0" ?><svg height="60px" version="1.1" viewBox="0 0 60 60" width="60px" xmlns="http://www.w3.org/2000/svg" xmlns:xlink="http://www.w3.org/1999/xlink"><title/><desc/><defs/><g fill="none" fill-rule="evenodd" id="Page-1" stroke="none" stroke-width="1"><g id="Snapchat" stroke="#000000" stroke-width="2" transform="translate(1.000000, 1.000000)"><path d="M49.9982,39.134 C50.0282,38.636 49.6772,38.198 49.1832,38.12 C43.6242,37.206 41.1192,31.507 41.0152,31.265 C41.0062,31.252 41.0022,31.234 40.9932,31.217 C40.7072,30.645 40.6422,30.168 40.7982,29.804 C41.1022,29.094 42.2672,28.725 43.0342,28.478 C43.2602,28.409 43.4682,28.344 43.6452,28.275 C44.4042,27.976 44.9452,27.651 45.3052,27.282 C45.7302,26.845 45.8162,26.424 45.8082,26.147 C45.7952,25.484 45.2882,24.89 44.4732,24.6 C44.2002,24.487 43.8882,24.427 43.5672,24.427 C43.3512,24.427 43.0302,24.457 42.7272,24.6 C42.0772,24.903 41.4922,25.068 40.9932,25.094 C40.7252,25.081 40.5382,25.02 40.4212,24.968 C40.4342,24.708 40.4522,24.44 40.4692,24.162 L40.4782,24.041 C40.6552,21.229 40.8762,17.723 39.9452,15.643 C39.3082,14.217 38.4542,12.995 37.4012,11.999 C36.5172,11.167 35.4942,10.495 34.3552,9.992 C32.3742,9.126 30.5282,9 29.6012,9 L29.4972,9 C29.2412,9 28.8212,9.004 28.7822,9.004 C27.8592,9.004 26.0132,9.134 24.0282,10.01 C22.8932,10.508 21.8702,11.184 20.9952,12.016 C19.9462,13.004 19.0932,14.226 18.4602,15.647 C17.5282,17.727 17.7492,21.229 17.9272,24.041 L17.9272,24.045 C17.9442,24.344 17.9662,24.661 17.9832,24.968 C17.8492,25.029 17.6282,25.094 17.3032,25.094 C16.7792,25.094 16.1552,24.929 15.4482,24.6 C15.2402,24.505 15.0022,24.453 14.7422,24.453 C14.3222,24.453 13.8802,24.578 13.4982,24.804 C13.0132,25.085 12.7012,25.484 12.6192,25.926 C12.5622,26.221 12.5622,26.801 13.2082,27.386 C13.5632,27.711 14.0882,28.01 14.7592,28.275 C14.9372,28.344 15.1452,28.409 15.3662,28.478 C16.1372,28.725 17.3032,29.094 17.6062,29.804 C17.7622,30.168 17.6932,30.645 17.4112,31.221 C17.4032,31.234 17.3942,31.252 17.3902,31.265 C17.3162,31.434 16.6532,32.929 15.2972,34.506 C14.5212,35.407 13.6722,36.157 12.7662,36.738 C11.6652,37.448 10.4692,37.916 9.2172,38.12 C8.7272,38.202 8.3762,38.636 8.4022,39.134 C8.4112,39.277 8.4462,39.42 8.5022,39.559 L8.5062,39.559 C8.7062,40.022 9.1652,40.417 9.9152,40.763 C10.8292,41.188 12.1982,41.543 13.9792,41.825 C14.0702,41.994 14.1662,42.423 14.2312,42.718 C14.2962,43.03 14.3692,43.35 14.4692,43.693 C14.5772,44.061 14.8592,44.503 15.5832,44.503 C15.8602,44.503 16.1762,44.442 16.5402,44.373 C17.0782,44.269 17.8102,44.126 18.7242,44.126 C19.2312,44.126 19.7562,44.169 20.2842,44.256 C21.3032,44.425 22.1822,45.045 23.2012,45.76 C24.6872,46.813 26.3732,48 28.9472,48 C29.0162,48 29.0852,47.996 29.1552,47.991 C29.2412,47.996 29.3452,48 29.4582,48 C32.0322,48 33.7182,46.808 35.2042,45.764 L35.2042,45.76 C36.2222,45.045 37.1022,44.425 38.1202,44.256 C38.6492,44.169 39.1732,44.126 39.6802,44.126 C40.5512,44.126 41.2452,44.234 41.8642,44.356 C42.2672,44.434 42.5792,44.473 42.8182,44.473 L42.8442,44.473 L42.8652,44.473 C43.3982,44.473 43.7882,44.182 43.9362,43.675 C44.0352,43.342 44.1052,43.025 44.1742,42.709 C44.2352,42.436 44.3302,41.994 44.4212,41.821 C46.2062,41.539 47.5762,41.184 48.4902,40.759 C49.2352,40.417 49.6992,40.022 49.8982,39.559 C49.9592,39.42 49.9942,39.277 49.9982,39.134 L49.9982,39.134 Z" id="Stroke-23"/><path d="M54,58 L4,58 C1.791,58 0,56.209 0,54 L0,4 C0,1.791 1.791,0 4,0 L54,0 C56.209,0 58,1.791 58,4 L58,54 C58,56.209 56.209,58 54,58 L54,58 Z" id="Stroke-113" stroke-linejoin="round"/></g></g></svg>